<svg xmlns="http://www.w3.org/2000/svg" viewBox="0 0 1200 750" role="img" aria-labelledby="title desc">
  <title id="title">LocalLink community app preview</title>
  <desc id="desc">A community app concept with discovery feed, filters, saved events, and local detail cards.</desc>
  <rect width="1200" height="750" fill="#edf0e7"/>
  <rect x="92" y="76" width="1016" height="598" rx="24" fill="#ffffff" stroke="#d4ddce" stroke-width="3"/>
  <rect x="155" y="130" width="265" height="490" rx="34" fill="#151719"/>
  <rect x="176" y="165" width="223" height="420" rx="26" fill="#fbfaf7"/>
  <text x="205" y="218" fill="#151719" font-family="Arial" font-size="28" font-weight="700">LocalLink</text>
  <rect x="205" y="250" width="70" height="30" rx="15" fill="#0f766e"/>
  <rect x="286" y="250" width="76" height="30" rx="15" fill="#e7e2d8"/>
  <rect x="205" y="314" width="160" height="92" rx="18" fill="#f4f0e6"/>
  <rect x="205" y="428" width="160" height="92" rx="18" fill="#e8f0f4"/>
  <rect x="505" y="145" width="440" height="88" rx="20" fill="#477b3f"/>
  <text x="540" y="199" fill="#ffffff" font-family="Arial" font-size="24" font-weight="700">Discover nearby events</text>
  <rect x="505" y="275" width="200" height="250" rx="22" fill="#f8f5ec"/>
  <rect x="745" y="275" width="200" height="250" rx="22" fill="#e8f0f4"/>
  <rect x="535" y="320" width="130" height="18" rx="9" fill="#151719"/>
  <rect x="535" y="365" width="110" height="14" rx="7" fill="#bbb3a5"/>
  <rect x="775" y="320" width="120" height="18" rx="9" fill="#151719"/>
  <rect x="775" y="365" width="92" height="14" rx="7" fill="#b7c7d2"/>
  <rect x="505" y="565" width="360" height="36" rx="18" fill="#151719"/>
  <text x="535" y="590" fill="#ffffff" font-family="Arial" font-size="16" font-weight="700">Metrics: saves, filter engagement, return visits</text>
</svg>
